<svg width="24" height="24" viewBox="0 0 24 24" fill="none" xmlns="http://www.w3.org/2000/svg">
<path fill-rule="evenodd" clip-rule="evenodd" d="M9.00667 10.8001H5.79279C5.32121 10.7961 4.8674 10.9797 4.53118 11.3104C4.19496 11.6411 4.00389 12.0918 4 12.5634V19.237C4.00872 20.2186 4.81122 21.0074 5.79279 20.9992H9.00667C9.47824 21.0031 9.93206 20.8196 10.2683 20.4889C10.6045 20.1582 10.7956 19.7075 10.7995 19.2359V12.5634C10.7956 12.0918 10.6045 11.6411 10.2683 11.3104C9.93206 10.9797 9.47824 10.7961 9.00667 10.8001Z" stroke="#F3248C" stroke-width="1.5" stroke-linecap="round" stroke-linejoin="round"/>
<path fill-rule="evenodd" clip-rule="evenodd" d="M9.00667 4.00068H5.79279C4.83096 3.97401 4.029 4.73085 4 5.69261V6.84172C4.029 7.80348 4.83096 8.56032 5.79279 8.53364H9.00667C9.9685 8.56032 10.7705 7.80348 10.7995 6.84172V5.69261C10.7705 4.73085 9.9685 3.97401 9.00667 4.00068Z" stroke="#F3248C" stroke-width="1.5" stroke-linecap="round" stroke-linejoin="round"/>
<path fill-rule="evenodd" clip-rule="evenodd" d="M14.8587 14.1999H18.0715C18.5432 14.2041 18.9973 14.0207 19.3338 13.69C19.6703 13.3592 19.8615 12.9084 19.8654 12.4366V5.76407C19.8615 5.2925 19.6704 4.84178 19.3342 4.51109C18.998 4.1804 18.5442 3.99682 18.0726 4.00075H14.8587C14.3871 3.99682 13.9333 4.1804 13.5971 4.51109C13.2609 4.84178 13.0698 5.2925 13.0659 5.76407V12.4366C13.0698 12.9082 13.2609 13.3589 13.5971 13.6896C13.9333 14.0203 14.3871 14.2038 14.8587 14.1999Z" stroke="#F3248C" stroke-width="1.5" stroke-linecap="round" stroke-linejoin="round"/>
<path fill-rule="evenodd" clip-rule="evenodd" d="M14.8587 20.9993H18.0715C19.0337 21.0266 19.8364 20.2696 19.8654 19.3074V18.1582C19.8364 17.1965 19.0344 16.4396 18.0726 16.4663H14.8587C13.8969 16.4396 13.0949 17.1965 13.0659 18.1582V19.3062C13.0943 20.2684 13.8964 21.026 14.8587 20.9993Z" stroke="#F3248C" stroke-width="1.5" stroke-linecap="round" stroke-linejoin="round"/>
</svg>
