<svg width="46" height="46" fill="none" xmlns="http://www.w3.org/2000/svg"><g clip-path="url(#a)"><path d="M32.333 16.5V9.833A.833.833 0 0 0 31.5 9H29a.833.833 0 0 0-.833.833V14m-9.968-4.505-6.913 2.288A3.333 3.333 0 0 0 9 14.947v19.47a3.333 3.333 0 0 0 3.333 3.333h20.834a3.333 3.333 0 0 0 3.333-3.333V21.454a3.333 3.333 0 0 0-1.553-2.818l-13.92-8.795a3.334 3.334 0 0 0-2.828-.346zM16.5 22.75H19c.46 0 .833-.373.833-.833v-2.5a.833.833 0 0 0-.833-.834h-2.5a.833.833 0 0 0-.833.834v2.5c0 .46.373.833.833.833zm14.167 14.583V26.5a.833.833 0 0 0-.834-.833h-4.166a.833.833 0 0 0-.834.833v10.833h5.834z" stroke="#F3248C" stroke-width="2" stroke-linecap="round" stroke-linejoin="round"/></g><defs><clipPath id="a"><path fill="#fff" d="M0 0h46v46H0z"/></clipPath></defs></svg>