<svg width="46" height="46" fill="none" xmlns="http://www.w3.org/2000/svg"><g clip-path="url(#a)" fill="#F3248C"><path d="m20.297 9.917-.692-1.208L8 28.236l.75.467c.059.04 5.496 3.46 6.305 6.84V41h8.633v-5.388c.867-3.333 6.372-6.685 6.42-6.723l.76-.458-10.386-18.202a.782.782 0 0 0-.185-.312zm1.617 25.373-.02.078v.42h-5.017v-.371l-.02-.175c-.711-3.313-4.618-6.353-6.402-7.59l8.341-14.022v10.562c0 .487.39.877.877.877s.877-.39.877-.877V13.961l7.912 13.846c-1.822 1.218-5.788 4.19-6.548 7.483zm-5.047 3.888V37.6h5.018v1.578h-5.018zM37.631 10.745H33.91V7.023a1.023 1.023 0 1 0-2.046 0v3.722h-3.664a1.023 1.023 0 1 0 0 2.046h3.664v3.664a1.023 1.023 0 1 0 2.046 0v-3.663h3.722a1.023 1.023 0 1 0 0-2.047z"/><path d="M19.663 27.631c-.847 0-1.53.682-1.53 1.53s.683 1.53 1.53 1.53c.848 0 1.53-.682 1.53-1.53a1.539 1.539 0 0 0-1.53-1.53z"/></g><defs><clipPath id="a"><path fill="#fff" d="M0 0h46v46H0z"/></clipPath></defs></svg>