<svg width="46" height="46" fill="none" xmlns="http://www.w3.org/2000/svg"><g clip-path="url(#a)" fill="#F3248C"><path d="M34.702 39.416a2.682 2.682 0 0 1-1.95-.956L16.337 19.388a2.725 2.725 0 0 1 .306-3.84l.44-.373a2.725 2.725 0 0 1 3.84.305L37.34 34.562a2.725 2.725 0 0 1-.306 3.84l-.44.373a2.715 2.715 0 0 1-1.891.64zM18.879 16.302a.96.96 0 0 0-.66.23l-.44.372a.96.96 0 0 0-.104 1.338L34.1 37.314c.334.4.936.44 1.337.105l.44-.373a.96.96 0 0 0 .105-1.338L19.557 16.627a.94.94 0 0 0-.678-.325z"/><path d="m23.289 19.631-3.226 2.756 1.155 1.351 3.225-2.755-1.154-1.352zM13.003 16.273a1.069 1.069 0 0 1-.344-.086L8.092 13.98a.882.882 0 0 1-.411-1.185.882.882 0 0 1 1.184-.41l4.568 2.207c.44.21.63.745.41 1.185a.907.907 0 0 1-.84.496zM23.007 12.785a1.074 1.074 0 0 1-.344-.086.882.882 0 0 1-.411-1.184l2.207-4.568a.882.882 0 0 1 1.185-.41c.44.21.63.745.41 1.184l-2.206 4.568a.891.891 0 0 1-.841.496zM14.283 30.835a1.071 1.071 0 0 1-.344-.086.882.882 0 0 1-.41-1.185l2.206-4.567a.882.882 0 0 1 1.185-.41c.44.21.63.744.41 1.184l-2.206 4.567a.907.907 0 0 1-.841.497zM17.245 12.566a.894.894 0 0 1-.803-.592L14.78 7.187a.895.895 0 0 1 .544-1.137.895.895 0 0 1 1.138.544l1.662 4.788a.895.895 0 0 1-.545 1.137.792.792 0 0 1-.334.047zM26.78 17.182a.894.894 0 0 1-.802-.592.895.895 0 0 1 .545-1.137l4.787-1.663a.895.895 0 0 1 1.137.545.895.895 0 0 1-.545 1.137l-4.787 1.662c-.114.029-.22.048-.334.048zM7.852 23.765a.894.894 0 0 1-.802-.592.895.895 0 0 1 .544-1.137l4.788-1.663a.899.899 0 0 1 1.136.545.895.895 0 0 1-.544 1.137l-4.787 1.662a.811.811 0 0 1-.335.048z"/></g><defs><clipPath id="a"><path fill="#fff" d="M0 0h46v46H0z"/></clipPath></defs></svg>