<svg width="46" height="46" fill="none" xmlns="http://www.w3.org/2000/svg"><g clip-path="url(#a)" fill="#F3248C"><path d="M30.82 38.958H15.18a3.046 3.046 0 0 1-3.046-3.047V10.443a3.046 3.046 0 0 1 3.047-3.047h15.638a3.046 3.046 0 0 1 3.047 3.047v25.46a3.053 3.053 0 0 1-3.047 3.055zM15.18 8.82c-.897 0-1.63.733-1.63 1.63v25.46c0 .898.733 1.631 1.63 1.631h15.64c.897 0 1.63-.733 1.63-1.63V10.442c0-.898-.733-1.631-1.63-1.631H15.18v.008z"/><path d="M30.82 39.044H15.18a3.138 3.138 0 0 1-3.132-3.133V10.443a3.138 3.138 0 0 1 3.133-3.133h15.638a3.138 3.138 0 0 1 3.133 3.133v25.46a3.14 3.14 0 0 1-3.133 3.141zM15.18 7.483a2.965 2.965 0 0 0-2.96 2.96v25.46c0 1.63 1.33 2.96 2.96 2.96h15.64c1.63 0 2.96-1.33 2.96-2.96v-25.46c0-1.631-1.33-2.96-2.96-2.96H15.18zM30.82 37.62H15.18c-.948 0-1.716-.768-1.716-1.717v-25.46c0-.95.768-1.718 1.717-1.718h15.638c.95 0 1.718.769 1.718 1.718v25.46c0 .949-.768 1.717-1.718 1.717zM15.18 8.907a1.54 1.54 0 0 0-1.535 1.536v25.46c0 .845.69 1.536 1.536 1.536h15.638a1.54 1.54 0 0 0 1.536-1.536v-25.46a1.54 1.54 0 0 0-1.536-1.536H15.181z"/><path d="M33.15 10.771H12.841v.708h20.307v-.708zM33.15 33.296H12.841v.708h20.307v-.708zM26.17 15.403l-6.867 7.856.533.466 6.867-7.856-.532-.466zM26.17 20.806l-6.868 7.856.533.466 6.867-7.856-.533-.466zM23 36.783a1.062 1.062 0 1 0 0-2.123 1.062 1.062 0 0 0 0 2.123z"/></g><defs><clipPath id="a"><path fill="#fff" d="M0 0h46v46H0z"/></clipPath></defs></svg>