<svg width="46" height="46" fill="none" xmlns="http://www.w3.org/2000/svg"><g clip-path="url(#a)" fill="#F3248C"><path d="M31.285 36.092H12.143c-2.089 0-3.789-1.855-3.789-4.142V14.758c0-2.287 1.7-4.143 3.789-4.143h19.142c2.089 0 3.789 1.856 3.789 4.143V31.95c0 2.287-1.7 4.142-3.789 4.142zM12.143 12.117c-1.33 0-2.417 1.182-2.417 2.64V31.95c0 1.458 1.088 2.64 2.417 2.64h19.142c1.33 0 2.417-1.182 2.417-2.64V14.758c0-1.459-1.088-2.641-2.417-2.641H12.143z"/><path d="M33.227 38.716H15.345c-1.882 0-3.565-1.312-4.177-3.254l1.294-.492c.423 1.347 1.58 2.244 2.883 2.244h17.882c1.683 0 3.047-1.493 3.047-3.331v-15.82c0-1.277-.648-2.416-1.692-2.986l-.035-.017s-.198-.12-.57-.268l.476-1.406c.422.172.681.32.75.362 1.502.829 2.434 2.477 2.434 4.315v15.82c.009 2.667-1.976 4.833-4.41 4.833zM16.122 14.36h-.64a1.179 1.179 0 0 1-1.181-1.181V9.545c0-.656.526-1.182 1.182-1.182h.639c.655 0 1.182.526 1.182 1.182v3.634c0 .655-.526 1.182-1.182 1.182zM28.86 14.36h-.639a1.179 1.179 0 0 1-1.182-1.181V9.545c0-.656.526-1.182 1.182-1.182h.64c.655 0 1.181.526 1.181 1.182v3.634c0 .655-.526 1.182-1.182 1.182z"/><path d="M25.279 32.657c-.26 0-.518-.06-.76-.19L21.8 31.043l-2.718 1.424a1.627 1.627 0 0 1-2.365-1.717l.518-3.02-2.2-2.141a1.617 1.617 0 0 1-.415-1.666 1.605 1.605 0 0 1 1.312-1.104l3.055-.45 1.355-2.752c.276-.561.837-.907 1.458-.907.622 0 1.183.346 1.459.907l1.355 2.753 3.038.44a1.608 1.608 0 0 1 1.312 1.105c.19.595.034 1.234-.415 1.665l-2.2 2.14.517 3.021a1.642 1.642 0 0 1-.647 1.597c-.267.216-.604.32-.94.32zM21.809 20.1a.228.228 0 0 0-.216.138l-1.683 3.409-3.754.544a.237.237 0 0 0-.198.164.234.234 0 0 0 .06.25l2.719 2.65L18.098 31a.217.217 0 0 0 .095.233.236.236 0 0 0 .259.017l3.357-1.769 3.357 1.77c.113.06.207.017.26-.018.042-.034.12-.112.094-.233l-.639-3.745 2.72-2.65a.235.235 0 0 0 .06-.25.237.237 0 0 0-.199-.164l-3.754-.544-1.683-3.409a.235.235 0 0 0-.216-.138zM33.978 15.966H9.468v1.122h24.51v-1.122z"/></g><defs><clipPath id="a"><path fill="#fff" d="M0 0h46v46H0z"/></clipPath></defs></svg>