<svg width="46" height="46" fill="none" xmlns="http://www.w3.org/2000/svg"><path d="M17.9 39V26.37c0-.955 0-1.433.185-1.798.163-.321.423-.582.743-.746.364-.186.84-.186 1.792-.186h4.76c.952 0 1.428 0 1.792.186.32.164.58.425.743.746.185.365.185.843.185 1.799V39M6 19.373l15.368-11.57c.585-.442.878-.662 1.2-.747.283-.075.581-.075.865 0 .321.085.614.305 1.199.746L40 19.373m-30.6-2.56V33.54c0 1.911 0 2.867.37 3.597a3.408 3.408 0 0 0 1.486 1.492c.728.372 1.68.372 3.584.372h16.32c1.904 0 2.856 0 3.584-.372.64-.327 1.16-.85 1.485-1.492.371-.73.371-1.686.371-3.597V16.813L26.264 9.031c-1.17-.881-1.756-1.322-2.398-1.492a3.387 3.387 0 0 0-1.732 0c-.642.17-1.227.61-2.398 1.492L9.4 16.813z" stroke="#F3248C" stroke-width="2" stroke-linecap="round" stroke-linejoin="round"/></svg>