<svg width="46" height="46" fill="none" xmlns="http://www.w3.org/2000/svg"><g clip-path="url(#a)"><path fill-rule="evenodd" clip-rule="evenodd" d="M13.115 21.476c.873 0 1.58.695 1.58 1.553 0 .857-.707 1.552-1.58 1.552-.873 0-1.579-.695-1.579-1.552a1.568 1.568 0 0 1 1.58-1.553zm4.507 1.288c-.779.195-1.572-.266-1.77-1.032a1.429 1.429 0 0 1 1.05-1.74c.212-.055.385-.093.518-.12 2.208-.42 4.17.072 5.812 1.517.741.652 1.4 1.498 1.971 2.542.288-.79.625-1.523.998-2.193.819-1.465 1.823-2.643 2.917-3.505a3.883 3.883 0 0 1-.205-1.255C28.911 14.781 30.723 13 32.955 13 35.188 13 37 14.78 37 16.976c0 2.195-1.812 3.976-4.045 3.976-.722 0-1.399-.186-1.987-.513-.804.632-1.567 1.53-2.208 2.68-.932 1.67-1.581 3.838-1.718 6.45a1.443 1.443 0 0 1-1.187 1.405 1.458 1.458 0 0 1-1.709-1.14 23.255 23.255 0 0 0-.312-1.385c-.617-2.358-1.481-3.991-2.545-4.928-.916-.806-2.04-1.075-3.32-.83a6.76 6.76 0 0 0-.347.073zm-7.043 2.402c.873 0 1.58.694 1.58 1.552 0 .858-.707 1.552-1.58 1.552-.873 0-1.579-.694-1.579-1.552 0-.858.706-1.552 1.58-1.552z" fill="#F3248C"/></g><defs><clipPath id="a"><path fill="#fff" d="M0 0h46v46H0z"/></clipPath></defs></svg>