<svg width="46" height="46" fill="none" xmlns="http://www.w3.org/2000/svg"><g clip-path="url(#a)" fill="#F3248C"><path d="M11.938 8H9.42A1.42 1.42 0 0 0 8 9.42v2.518c0 .784.636 1.42 1.42 1.42h2.518a1.42 1.42 0 0 0 1.42-1.42V9.42A1.42 1.42 0 0 0 11.938 8zm-.223 1.643v2.072H9.643V9.643h2.072zM36.58 8h-2.518a1.42 1.42 0 0 0-1.42 1.42v2.518c0 .784.636 1.42 1.42 1.42h2.518a1.42 1.42 0 0 0 1.42-1.42V9.42A1.42 1.42 0 0 0 36.58 8zm-.223 1.643v2.072h-2.072V9.643h2.072zM11.938 32.642H9.42A1.42 1.42 0 0 0 8 34.062v2.518c0 .784.636 1.42 1.42 1.42h2.518a1.42 1.42 0 0 0 1.42-1.42v-2.518a1.42 1.42 0 0 0-1.42-1.42zm-.223 1.643v2.072H9.643v-2.072h2.072zM36.58 32.642h-2.518a1.42 1.42 0 0 0-1.42 1.42v2.518c0 .784.636 1.42 1.42 1.42h2.518A1.42 1.42 0 0 0 38 36.58v-2.518a1.42 1.42 0 0 0-1.42-1.42zm-.223 1.643v2.072h-2.072v-2.072h2.072zM29.72 19.5v-4.07H16.28v4.07h2.6V18.04h2.816v10.616H20.21v2.6h5.58v-2.6h-1.486V18.04h2.815V19.5h2.6zM18.393 35.16h-3.83v1.42h3.83v-1.42zM24.915 35.16h-3.83v1.42h3.83v-1.42zM31.437 35.16h-3.83v1.42h3.83v-1.42zM10.84 27.606H9.42v3.83h1.42v-3.83zM10.84 21.085H9.42v3.83h1.42v-3.83zM10.84 14.563H9.42v3.83h1.42v-3.83zM18.393 9.42h-3.83v1.42h3.83V9.42zM24.915 9.42h-3.83v1.42h3.83V9.42zM31.437 9.42h-3.83v1.42h3.83V9.42zM36.58 21.085h-1.42v3.83h1.42v-3.83zM36.58 27.606h-1.42v3.83h1.42v-3.83zM36.58 14.563h-1.42v3.83h1.42v-3.83z"/></g><defs><clipPath id="a"><path fill="#fff" d="M0 0h46v46H0z"/></clipPath></defs></svg>