<svg width="46" height="46" fill="none" xmlns="http://www.w3.org/2000/svg"><g clip-path="url(#a)"><path d="M37.773 14.246a.763.763 0 0 0 .227-.523.775.775 0 0 0-.202-.531L33.126 8.23a.713.713 0 0 0-1.034-.017l-8.79 8.604-5.731-5.776c-.009-.008-.017-.008-.025-.017-.034-.034-.076-.051-.118-.077-.042-.026-.084-.052-.126-.069-.008 0-.017-.008-.025-.017L9.78 8.436a.68.68 0 0 0-.219-.034.742.742 0 0 0-.697.96l2.302 7.789c.009.017.017.026.017.043.008.034.025.06.042.085.025.052.059.095.092.138.009.017.017.034.034.042l5.572 5.613L8.226 31.6a.747.747 0 0 0-.017 1.054l4.673 4.961c.134.146.319.223.512.232l.017.154v-.154c.193 0 .37-.077.504-.206l8.85-8.672 3.73 3.753c.034.052.06.112.101.155.042.042.093.06.143.094l1.723 1.73c.034.052.059.104.1.146.043.043.093.06.144.095l.84.848a4.037 4.037 0 0 0 2.882 1.208h.026a4.012 4.012 0 0 0 2.89-1.242l.463-.48c1.588-1.637 1.571-4.293-.034-5.904l-.832-.84c-.034-.051-.059-.111-.1-.154-.043-.043-.102-.069-.152-.103l-1.714-1.723c-.034-.05-.06-.102-.101-.145-.042-.043-.101-.069-.152-.103l-3.563-3.59 8.614-8.467zm-12.992 3.196 1.193 1.26a.422.422 0 0 0 .32.137c.109 0 .218-.043.302-.128a.446.446 0 0 0 .009-.634l-1.194-1.26 1.026-1.003.588.626a.422.422 0 0 0 .32.137c.108 0 .218-.043.302-.129a.446.446 0 0 0 .008-.634l-.588-.625.941-.926 1.193 1.26a.422.422 0 0 0 .32.137c.109 0 .218-.043.302-.129a.446.446 0 0 0 .009-.634l-1.194-1.26 1.026-1.002.588.626a.422.422 0 0 0 .32.137c.108 0 .218-.043.302-.129a.446.446 0 0 0 .008-.634l-.588-.626.941-.925 1.193 1.26a.422.422 0 0 0 .32.137c.109 0 .218-.043.302-.129a.446.446 0 0 0 .009-.634l-1.194-1.26.681-.668 3.656 3.882-8.127 7.97-3.756-3.788.462-.412zm8.446 11.466-4.168 4.302-.874-.874 4.168-4.302.874.874zM12.209 15.514l-1.235-4.19.697-.72 4.034 1.303-3.496 3.607zm3.404-1.396L29.815 28.42l-1.277 1.32-14.203-14.303 1.278-1.32zm14.664 13.839L16.075 13.655l.992-1.02 14.202 14.302-.992 1.02zm-16.395-12.04 14.202 14.302-.983 1.011-14.203-14.302.984-1.011zm-.454 20.13-3.656-3.883.48-.471.587.626a.422.422 0 0 0 .32.137c.11 0 .218-.043.302-.129a.446.446 0 0 0 .009-.634l-.588-.626.94-.925 1.194 1.26a.422.422 0 0 0 .32.137c.109 0 .218-.043.302-.129a.446.446 0 0 0 .008-.634l-1.193-1.26 1.025-1.002.588.625a.422.422 0 0 0 .32.137c.11 0 .218-.042.302-.128a.446.446 0 0 0 .009-.634l-.588-.626.94-.925 1.194 1.26a.422.422 0 0 0 .32.137c.109 0 .218-.043.302-.129a.446.446 0 0 0 .008-.634l-1.193-1.26 1.025-1.002.589.625a.422.422 0 0 0 .319.137c.109 0 .218-.043.302-.128a.446.446 0 0 0 .009-.634l-.588-.626.605-.591 3.756 3.787-8.27 8.141zm21.328-1.826-.462.48a2.556 2.556 0 0 1-1.857.797c-.714 0-1.37-.274-1.866-.771l-.412-.42 4.169-4.302.411.42c1.026 1.037 1.034 2.742.017 3.796z" fill="#F3248C"/></g><defs><clipPath id="a"><path fill="#fff" d="M0 0h46v46H0z"/></clipPath></defs></svg>